<svg width="34" height="34" fill="#4F4F4F" xmlns="http://www.w3.org/2000/svg">
  <path stroke="null" id="svg_1" d="m14.14212,22.2075q-0.18936,-0.23671 -0.2012,-0.52075q-0.01184,-0.28405 0.2012,-0.49708l4.16603,-4.16603l-4.1897,-4.1897q-0.18936,-0.18936 -0.17753,-0.50892q0.01184,-0.31955 0.2012,-0.50892q0.23671,-0.23671 0.50892,-0.22487q0.27221,0.01184 0.48525,0.22487l4.71045,4.71045q0.11835,0.11835 0.16569,0.23671q0.04734,0.11835 0.04734,0.26038q0,0.14202 -0.04734,0.26038q-0.04734,0.11835 -0.16569,0.23671l-4.68678,4.68678q-0.21304,0.21304 -0.49708,0.2012q-0.28405,-0.01184 -0.52075,-0.2012z"/>
</svg>